<?xml version="1.0" encoding="utf-8"?>
<!-- Generator: Adobe Illustrator 16.0.0, SVG Export Plug-In . SVG Version: 6.00 Build 0)  -->
<!DOCTYPE svg PUBLIC "-//W3C//DTD SVG 1.1//EN" "http://www.w3.org/Graphics/SVG/1.1/DTD/svg11.dtd">
<svg version="1.1" id="svg" xmlns="http://www.w3.org/2000/svg" xmlns:xlink="http://www.w3.org/1999/xlink" x="0px" y="0px"
	 width="212.5px" height="238.167px" viewBox="93.5 65.598 212.5 238.167" enable-background="new 93.5 65.598 212.5 238.167"
	 xml:space="preserve">
<g id="svgg">
	<path id="path0" fill="#FBFBFB" d="M179.5,128.062c-5.585,1.619-5.825,8.051-0.372,9.968c1.306,0.459,2.899,0.433,5.122-0.083
		c5.239-1.217,6.995-1.6,7.794-1.699l0.879-0.11l0.312,1.556c0.172,0.856,0.601,2.784,0.953,4.284s0.6,2.794,0.55,2.875
		c-0.05,0.081-1.024,0.147-2.165,0.147H190.5v1v1h-1.261c-2.034,0-1.906-0.279-1.906,4.139c0,4.093,0.022,4.194,0.88,4.194
		c1.26,0-0.658,3.446-2.124,3.815c-1.882,0.474-11.076,0.729-12.457,0.345c-0.442-0.123-0.752-0.371-1.089-0.874l-0.472-0.702
		l-2.952-0.046l-2.952-0.045v0.92v0.921h-11.084c-9.927,0-11.083,0.027-11.083,0.26c0,0.153-0.078,0.211-0.192,0.14
		c-0.117-0.072-0.148-0.045-0.078,0.068c0.063,0.102-0.148,0.995-0.469,1.984c-1.218,3.75-2.085,7.647-2.419,10.881
		c-0.1,0.963-0.21,2.031-0.246,2.374l-0.064,0.624l12.776,0.043l12.775,0.042l0.051,0.875l0.05,0.875h2.906h2.906l0.429-0.679
		c0.73-1.157,0.969-1.199,6.318-1.107c5.762,0.1,7.344,0.314,11.803,1.601c7.78,2.245,11.718,2.123,18.287-0.567
		c3.797-1.554,4.896-1.908,6.282-2.026c5.509-0.469,10.107,4.858,10.062,11.654c-0.016,2.373,0.21,3.125,0.939,3.121
		c0.972-0.006,1.217-0.523,1.217-2.574v-1.598l2.625,0.045l2.625,0.047l0.084,5.85c0.09,6.335,0.101,6.4,1,6.4s0.909-0.065,1-6.4
		l0.083-5.85l0.782-0.051l0.782-0.051l0.051,3.441c0.055,3.65,0.164,4.076,1.052,4.076c0.886,0,0.997-0.426,1.051-4.076l0.052-3.441
		l0.781,0.051l0.782,0.051l0.084,4.183c0.09,4.542,0.131,4.733,1.011,4.733c0.965,0,0.989-0.156,0.989-6.436
		c0-8.84-0.556-12.522-2.46-16.314c-3.247-6.467-11.016-10.853-20.207-11.407c-4.561-0.276-6.163-0.72-7.563-2.097
		c-1.106-1.09-1.693-2.913-0.938-2.913c0.909,0,1-0.379,1-4.178c0-4.398,0.117-4.155-2.006-4.155h-1.661v-1.084V145h-1.75
		c-1.386,0-1.75-0.048-1.75-0.233c0-0.128,0.377-1.946,0.838-4.041c0.461-2.095,0.876-3.984,0.923-4.198
		c0.107-0.486,0.006-0.501,5.989,0.831c3.358,0.748,4.817,1,5.75,0.996c5.405-0.024,8.087-5.532,4.335-8.906
		c-2.072-1.862-3.748-1.986-9.835-0.725c-5.938,1.23-6.06,1.242-7.017,0.705c-2.785-1.561-8.819-1.599-11.917-0.075l-1.089,0.536
		l-1.512-0.201c-0.831-0.111-2.982-0.547-4.78-0.969C182.92,127.875,180.823,127.679,179.5,128.062 M229.333,186.833
		c-0.491,0.492-0.517,7.117-0.028,7.559c0.436,0.395,1.125,0.348,1.437-0.096c0.497-0.709,0.372-6.863-0.15-7.387
		C230.096,186.413,229.773,186.393,229.333,186.833 M225.643,193.652l-0.393,0.319v6.58c0,7.216,0.009,7.281,1.014,7.281
		c1.053,0,1.086-0.231,1.033-7.377l-0.047-6.486l-0.393-0.317C226.361,193.252,226.137,193.252,225.643,193.652 M236.68,196.939
		c-0.322,0.409-0.346,0.653-0.344,3.542c0.003,3.652,0.08,3.936,1.081,3.936c1.026,0,1.097-0.27,1.044-4.024
		c-0.04-2.868-0.077-3.228-0.361-3.542C237.667,196.374,237.096,196.409,236.68,196.939 M229.333,198.5
		c-0.325,0.324-0.333,0.556-0.333,9.054v8.721l0.387,0.363c0.493,0.464,0.701,0.456,1.204-0.048l0.409-0.408v-8.568
		c0-8.416-0.006-8.576-0.346-9.008C230.242,198.083,229.788,198.045,229.333,198.5 M240.5,198.5c-0.316,0.316-0.333,0.556-0.333,5
		c0,5.045,0.052,5.332,0.968,5.332c0.979,0,1.032-0.278,1.032-5.338c0-5.066-0.049-5.328-1-5.328
		C240.982,198.167,240.684,198.317,240.5,198.5 M232.926,201.87c-0.205,0.295-0.259,0.871-0.259,2.797c0,2.73,0.138,3.166,1,3.166
		s1-0.436,1-3.166s-0.138-3.166-1-3.166C233.357,201.5,233.092,201.633,232.926,201.87 M236.68,208.439
		c-0.846,1.074-0.313,4.062,0.723,4.062c0.766,0,1.015-0.553,1.015-2.25C238.417,208.125,237.598,207.272,236.68,208.439
		 M225.719,211.463c-0.531,0.338-0.857,7.877-0.394,9.099c0.332,0.874,1.334,0.927,1.765,0.092c0.314-0.606,0.358-8.124,0.053-8.706
		C226.83,211.355,226.218,211.147,225.719,211.463 M232.926,211.704c-0.224,0.32-0.259,1.254-0.259,6.84v6.467l1-0.704l1-0.705
		v-5.763c0-6.369-0.021-6.506-1-6.506C233.357,211.333,233.092,211.465,232.926,211.704 M240.587,212.542l-0.433,0.375l0.049,2.971
		l0.047,2.97l0.958-0.921l0.959-0.921v-2.079c0-2.047-0.007-2.084-0.438-2.424C241.178,212.081,241.116,212.083,240.587,212.542
		 M236.811,216.152c-0.383,0.308-0.396,0.403-0.447,3.196l-0.053,2.877l0.76-0.623c0.455-0.371,0.846-0.574,0.971-0.502
		c0.115,0.066,0.152,0.059,0.084-0.018s-0.006-0.271,0.139-0.432c0.469-0.518,0.277-4.081-0.24-4.499
		C237.529,215.752,237.305,215.752,236.811,216.152 M229.333,220.667c-0.317,0.318-0.552,6.5-0.246,6.5
		c0.048,0,0.381-0.194,0.74-0.433c0.372-0.245,0.741-0.378,0.856-0.308c0.123,0.076,0.158,0.056,0.09-0.055
		c-0.062-0.101-0.037-0.229,0.058-0.287c0.412-0.254,0.204-4.897-0.24-5.342C230.096,220.247,229.773,220.227,229.333,220.667
		 M225.643,225.485c-0.357,0.29-0.397,0.471-0.449,2c-0.065,1.911-0.1,1.877,1.236,1.223l0.936-0.457l-0.063-1.227
		C227.219,225.354,226.561,224.743,225.643,225.485"/>
	<path id="path1" fill="#2494D4" d="M199.015,68.34c-0.684,0.288-1.258,1.248-1.444,2.415c-0.32,2.019-2.234,7.154-4.387,11.772
		c-0.284,0.611-0.517,1.146-0.517,1.19c0,0.175-2.419,4.436-3.277,5.773c-0.504,0.785-1.267,2.008-1.695,2.718
		c-1.273,2.114-7.206,10.263-8.524,11.709c-0.251,0.275-0.706,0.875-1.012,1.333c-0.597,0.895-1.887,2.554-3.241,4.167
		c-0.969,1.155-1.72,2.137-2.137,2.794c-0.161,0.254-0.759,1.041-1.33,1.75c-1.06,1.315-6.493,8.766-7.701,10.56
		c-0.367,0.544-1.417,2.056-2.333,3.36c-1.668,2.371-2.406,3.467-4.119,6.119c-0.503,0.779-1.489,2.295-2.191,3.37
		c-0.701,1.074-1.585,2.536-1.964,3.25c-0.379,0.713-0.91,1.629-1.18,2.034c-1.467,2.204-5.697,10.657-7.013,14.013
		c-0.233,0.595-0.572,1.458-0.752,1.916l-0.327,0.834l11.064-0.044L166,159.329v-0.831v-0.831h2.924
		c3.035,0,3.743,0.187,3.743,0.988c0,0.743,1.803,0.909,7.666,0.702c6.293-0.222,6.75-0.349,7.564-2.091
		c0.641-1.374,0.681-1.599,0.281-1.599c-0.931,0-1.011-0.349-1.011-4.385c0-4.522-0.076-4.337,1.818-4.423l1.348-0.061v-1.066
		v-1.065h2.084c1.557,0,2.082-0.053,2.081-0.209c-0.002-0.114-0.119-0.696-0.261-1.291c-0.234-0.98-1.404-6.635-1.404-6.786
		c0-0.116-4.225,0.715-8.25,1.623c-4.669,1.054-7.814,0.029-9.22-3.004c-2.03-4.377,2.66-8.244,8.47-6.985
		c4.04,0.876,6.196,1.301,7.528,1.484l1.444,0.198l1.056-0.503c3.012-1.434,9.821-1.345,12.258,0.162
		c0.622,0.384,1.672,0.249,8.061-1.034c3.502-0.703,4.151-0.758,5.521-0.468c6.243,1.326,6.666,8.448,0.612,10.332
		c-1.438,0.448-2.636,0.393-5.701-0.261c-2.514-0.537-6.275-1.291-7.316-1.467c-0.506-0.086-0.498-0.1-0.797,1.459
		c-0.221,1.148-1.301,6.024-1.43,6.452c-0.077,0.255,0.098,0.291,1.631,0.333l1.718,0.048l0.047,1.167l0.048,1.166l1.399-0.053
		c2.247-0.086,2.103-0.392,2.05,4.352l-0.044,4.035l-0.542,0.159c-0.632,0.186-0.661,0.394-0.195,1.424
		c0.98,2.164,2.737,2.883,7.957,3.256c9.586,0.685,17.494,5.08,20.76,11.538c1.776,3.511,2.433,8.041,2.436,16.824
		c0.001,5.604-0.037,5.887-0.854,6.225c-1.321,0.548-1.644-0.471-1.645-5.217L239.833,186h-0.573h-0.574l-0.051,3.265l-0.052,3.265
		l-0.467,0.401c-0.257,0.221-0.572,0.401-0.699,0.401c-0.128,0-0.442-0.181-0.699-0.401l-0.468-0.401l-0.052-3.265L236.146,186
		h-0.566h-0.566l-0.049,5.652l-0.048,5.654l-0.403,0.43c-0.494,0.525-1.179,0.559-1.613,0.079c-0.297-0.327-0.32-0.717-0.365-6.083
		L232.488,186h-2.578h-2.577v1.674c0,2.285-0.658,3.057-1.782,2.091c-0.467-0.401-0.468-0.406-0.564-3.042
		c-0.223-6.147-3.256-10.571-7.809-11.389c-1.972-0.355-3.687,0.051-8.845,2.09c-6.739,2.665-9.826,2.694-18.406,0.176
		c-5.296-1.555-16.207-2.039-17.094-0.758c-0.827,1.196-0.7,1.158-3.9,1.158h-2.916l-0.05-0.875l-0.05-0.875l-12.705-0.043
		l-12.705-0.042l-0.111,0.443c-0.559,2.224,0.665,11.191,2.206,16.17c0.402,1.299,0.731,2.444,0.731,2.547
		c0,0.459,1.968,4.821,3.199,7.092c0.746,1.375,1.467,2.719,1.604,2.985c0.575,1.123,3.671,5.572,4.35,6.25
		c0.148,0.147,0.45,0.531,0.671,0.851c1.403,2.022,7.225,7.84,9.176,9.168c0.321,0.218,0.996,0.748,1.5,1.178
		c3.289,2.802,10.852,7.137,15.084,8.645c8.553,3.049,12.375,3.823,19.556,3.963c7.238,0.139,12.702-0.649,18.61-2.685
		c3.673-1.267,4.239-1.479,6.084-2.289l1.916-0.842l-0.054-1.595c-0.062-1.823,0.015-2.256,0.475-2.717
		c0.915-0.914,1.829-0.035,1.829,1.76v1.27l0.677-0.387l0.678-0.389l0.031-3.277c0.034-3.581,0.197-4.139,1.208-4.139
		c0.999,0,1.149,0.402,1.24,3.32l0.083,2.686l0.62-0.422l0.618-0.422l0.048-6.73c0.045-6.348,0.065-6.75,0.364-7.081
		c0.435-0.479,1.119-0.446,1.613,0.08l0.403,0.429l0.083,5.715l0.083,5.715l0.731-0.561c0.401-0.309,0.641-0.563,0.531-0.563
		c-0.391,0-0.168-5.754,0.237-6.145c1.231-1.184,1.974-0.363,2.084,2.303l0.083,2.021l0.57-0.477l0.57-0.478l-0.041-2.841
		c-0.056-3.819,0.166-4.551,1.377-4.551c0.859,0,1.106,0.646,1.106,2.893v2.014l1.015-0.994c0.889-0.873,1.758-1.879,4.065-4.713
		c1.034-1.271,3.868-5.426,4.286-6.283c0.222-0.459,0.9-1.732,1.505-2.832c1.831-3.328,2.937-6.103,4.116-10.334
		c2.451-8.792,2.504-17.651,0.154-26.551c-0.283-1.071-0.549-2.136-0.592-2.365c-0.309-1.653-2.724-7.86-4.209-10.818
		c-0.462-0.922-0.841-1.767-0.841-1.878c0-0.26-2.397-4.686-3.821-7.054c-0.605-1.008-1.201-2.057-1.32-2.33
		c-0.299-0.677-5.234-8.355-7.006-10.897c-0.789-1.134-2.148-3.1-3.019-4.371c-2.662-3.883-8.466-11.856-8.907-12.235
		c-0.107-0.092-0.469-0.58-0.804-1.084s-1.134-1.554-1.776-2.333c-0.641-0.779-1.638-2.043-2.215-2.809
		c-0.576-0.766-1.498-1.961-2.048-2.654c-2.119-2.673-3.584-4.594-3.584-4.698c0-0.06-0.144-0.264-0.319-0.453
		c-0.176-0.188-1.088-1.421-2.027-2.739c-0.938-1.318-1.838-2.547-1.998-2.73c-0.159-0.184-0.496-0.709-0.748-1.167
		c-0.254-0.458-0.947-1.583-1.543-2.5c-2.084-3.203-3.379-5.645-5.609-10.583c-0.994-2.2-2.355-6.054-2.584-7.313
		C201.891,68.968,200.721,67.622,199.015,68.34 M230.387,186.527c0.734,0.392,0.77,0.571,0.774,4.007
		c0.006,3.573-0.076,3.988-0.849,4.309c-1.33,0.551-1.679-0.416-1.613-4.477l0.051-3.229l0.468-0.402
		C229.749,186.279,229.877,186.256,230.387,186.527 M226.988,193.606c0.535,0.682,0.541,13.455,0.006,14.029
		c-0.448,0.48-1.078,0.463-1.585-0.045L225,207.182v-6.434c0-5.351,0.041-6.512,0.246-6.908
		C225.659,193.042,226.46,192.934,226.988,193.606 M238.116,196.736l0.467,0.402v3.444v3.446l-0.467,0.402
		c-0.257,0.221-0.572,0.401-0.699,0.401c-0.128,0-0.442-0.181-0.699-0.401l-0.468-0.402v-3.446v-3.444l0.468-0.402
		c0.257-0.222,0.571-0.403,0.699-0.403C237.544,196.333,237.859,196.514,238.116,196.736 M230.758,198.409l0.409,0.409v8.726
		c0,9.82,0.047,9.457-1.231,9.457c-1.23,0-1.186,0.359-1.186-9.422v-8.719l0.404-0.43
		C229.662,197.889,230.23,197.881,230.758,198.409 M241.576,198.104c1.15,0.441,1.15,10.352,0,10.792
		c-0.506,0.194-0.852,0.104-1.256-0.326l-0.403-0.43v-4.64v-4.641l0.403-0.43C240.725,197.999,241.07,197.911,241.576,198.104
		 M234.419,201.609c0.478,0.478,0.581,1.022,0.581,3.058c0,2.582-0.297,3.334-1.318,3.334c-0.963,0-1.099-0.412-1.099-3.334
		c0-2.354,0.034-2.668,0.317-2.982C233.282,201.263,234.036,201.226,234.419,201.609 M238.128,208.167
		c1.085,1.01,0.534,4.5-0.711,4.5c-1.159,0-1.741-3.361-0.763-4.403C237.139,207.749,237.643,207.715,238.128,208.167 M227,211.5
		c0.316,0.315,0.333,0.556,0.333,4.713c0,4.932-0.039,5.119-1.08,5.119c-1.181,0-1.253-0.291-1.253-5.113v-4.234l0.409-0.408
		C225.904,211.081,226.55,211.049,227,211.5 M196.833,262.5V274h2.5h2.5l0.01-5.625l0.009-5.625l0.506-0.4
		c0.996-0.788,2.023-1.001,2.875-0.598c1.086,0.516,1.101,0.609,1.101,6.731V274h2.584h2.583l-0.001-5.209
		c-0.002-5.879-0.116-6.943-0.896-8.375c-1.512-2.769-5.303-3.574-8.062-1.711l-0.709,0.478v-4.093V251h-2.5h-2.5V262.5
		 M279.333,262.5V274h2.5h2.5v-11.5V251h-2.5h-2.5V262.5 M182.167,251.59c-8.007,1.804-11.559,11.154-6.809,17.926
		c3.425,4.882,12.131,6.371,17.183,2.938l0.792-0.537v-4.877v-4.879l-4.041,0.045l-4.042,0.045v1.683
		c0,2.174,0.047,2.233,1.77,2.233h1.313v1.646v1.646l-0.541,0.229c-1.082,0.456-4.053,0.309-5.17-0.258
		c-4.692-2.379-5.061-9.865-0.628-12.746l0.923-0.6l2.333,0.002l2.333,0.002l1.284,0.705c2.114,1.162,2.675,1.024,3.939-0.971
		c0.859-1.355,0.861-1.314-0.086-2.148C190.545,251.76,185.679,250.799,182.167,251.59 M115.333,262.75V274h2.75h2.75v-4.668v-4.666
		h4.25h4.25v4.67v4.672l2.792-0.047l2.792-0.045l0.046-10.834c0.025-5.957,0.004-11.004-0.046-11.211
		c-0.092-0.379-0.104-0.379-2.796-0.334l-2.704,0.045l-0.045,4.709L129.328,261h-4.247h-4.248v-4.75v-4.75h-2.75h-2.75V262.75
		 M253.799,259.708l-0.049,8.209l-0.391,0.682c-0.601,1.048-1.082,1.249-3.065,1.287c-2.05,0.037-2.032,0.017-2.207,2.471
		l-0.114,1.605l1.467,0.209c3.891,0.552,6.562-0.313,8.312-2.689c1.474-2.003,1.479-2.047,1.545-11.605l0.058-8.375H256.6h-2.752
		L253.799,259.708 M143,257.917c-1.303,0.291-3.594,1.392-4.165,1.998l-0.411,0.438l0.496,0.927c0.861,1.608,1.894,1.864,3.71,0.92
		c2.434-1.268,4.093-0.672,4.322,1.551l0.095,0.916h-1.005c-5.81,0-9.271,3.025-7.942,6.94c1.037,3.054,5.761,3.713,8.884,1.239
		l0.623-0.493l0.207,0.571c0.36,0.996,0.535,1.076,2.372,1.076h1.663l-0.049-5.959l-0.05-5.959l-0.485-0.988
		C149.887,258.284,146.746,257.077,143,257.917 M162.167,258.014c-0.413,0.186-1.097,0.708-1.521,1.158l-0.771,0.822l-0.112-0.701
		c-0.192-1.199-0.378-1.293-2.539-1.293h-1.891v8v8h2.5h2.5V269.2v-4.8l0.457-0.705c0.671-1.034,1.486-1.376,2.984-1.25
		c1.429,0.12,1.468,0.078,1.63-1.778c0.061-0.688,0.151-1.533,0.201-1.877C165.762,257.715,163.8,257.274,162.167,258.014
		 M219.083,257.915c-1.31,0.289-2.358,0.754-3.584,1.586c-1.185,0.805-1.17,0.719-0.339,1.969c1.004,1.513,1.771,1.637,3.807,0.615
		c2.318-1.164,3.777-0.512,3.999,1.791l0.076,0.791h-1.002c-3.399,0-6.97,1.551-7.875,3.42c-2.261,4.672,4.106,8.309,8.603,4.914
		c0.854-0.644,0.867-0.647,0.963-0.271c0.268,1.067,0.66,1.271,2.449,1.271h1.653l-0.007-5.709c-0.006-4.676-0.053-5.828-0.26-6.375
		c-0.139-0.367-0.315-0.867-0.394-1.11C226.412,258.418,222.74,257.106,219.083,257.915 M238.241,257.981
		c-0.371,0.168-1.019,0.697-1.437,1.178l-0.763,0.87l-0.114-0.762c-0.168-1.122-0.469-1.267-2.632-1.267H231.5v8v8h2.5h2.5v-4.828
		c0-6.418,0.273-6.963,3.368-6.725c1.239,0.096,1.29,0.086,1.454-0.299c0.197-0.464,0.484-3.756,0.347-3.979
		C241.33,257.622,239.282,257.508,238.241,257.981 M266.729,257.997c-2.408,0.631-4.524,1.996-4.164,2.686
		c1.195,2.29,2.158,2.602,4.313,1.398c2.096-1.172,3.854-0.467,4.071,1.631l0.093,0.902l-1.645,0.104
		c-5.467,0.348-8.17,2.561-7.566,6.195c0.583,3.516,5.648,4.621,9.104,1.983l0.701-0.536l0.106,0.564
		c0.166,0.891,0.591,1.076,2.463,1.076h1.629v-5.672c0-6.246-0.06-6.685-1.122-8.22C273.25,257.999,270,257.139,266.729,257.997
		 M147,268.647c0,1.747-2.748,3.033-4.042,1.893c-1.318-1.164,0.581-2.748,3.417-2.851l0.625-0.022V268.647 M223,268.655
		c0,2.286-4.134,3.334-4.299,1.09c-0.083-1.121,1.542-2.035,3.674-2.068l0.625-0.01V268.655 M271,268.652
		c0,1.544-1.921,2.692-3.588,2.147l-0.662-0.217v-0.908c0-1.232,1.289-1.941,3.625-1.993l0.625-0.015V268.652 M120,291.417V301
		h2.083h2.084v-9.584v-9.584h-2.084H120V291.417 M243.443,282.333c-1.836,1.611-0.813,4.334,1.629,4.334
		c1.943,0,3.031-1.963,2.055-3.701C246.417,281.702,244.529,281.377,243.443,282.333 M271.657,282.284
		c-2.278,1.916-0.187,5.305,2.563,4.155c1.383-0.577,1.909-2.321,1.071-3.554C274.521,281.752,272.654,281.444,271.657,282.284
		 M100.967,289.042c-0.064,8.531-0.078,8.572-2.904,8.494c-1.662-0.047-1.674-0.033-1.866,1.891
		c-0.178,1.787-0.37,1.541,1.388,1.769c3.401,0.438,5.914-0.573,7.075-2.849c0.783-1.534,0.84-2.17,0.84-9.299v-6.715h-2.241h-2.242
		L100.967,289.042 M138.166,289.042c0,8.39-0.046,8.537-2.698,8.486c-1.948-0.037-1.944-0.04-2.085,2.084l-0.09,1.361l0.812,0.139
		c3.298,0.561,6.239-0.291,7.496-2.174c1.111-1.664,1.131-1.822,1.194-9.563l0.058-7.043h-2.343h-2.343L138.166,289.042
		 M219.667,291.667V301h1.997h1.998l0.044-5.604l0.044-5.604l1.583,2.965c0.871,1.632,1.735,3.311,1.921,3.73
		c0.992,2.248,1.396,2.695,2.541,2.805c1.434,0.139,1.859-0.176,2.805-2.063c0.453-0.904,1.534-2.986,2.403-4.627l1.58-2.982
		l0.044,5.69l0.044,5.69h1.998h1.998v-9.334v-9.334h-2.175c-2.686,0-2.352-0.309-4.639,4.28c-0.953,1.909-1.844,3.695-1.98,3.97
		c-0.137,0.275-0.587,1.158-1,1.961l-0.752,1.459l-0.893-1.709c-0.49-0.94-1.164-2.272-1.498-2.961c-3.602-7.431-3.232-7-5.989-7
		h-2.074V291.667 M110.664,287.667c-1.463,0.365-3.497,1.584-3.497,2.097c0,1.491,1.761,2.263,3.398,1.489
		c2.205-1.045,3.435-0.564,3.435,1.34v0.541l-1.042,0.109c-5.193,0.543-7.703,3.133-6.078,6.272c1.055,2.038,5.066,2.37,7.359,0.608
		c0.297-0.228,0.351-0.207,0.673,0.272c0.345,0.513,0.372,0.521,1.897,0.569l1.547,0.048l-0.053-4.882
		c-0.059-5.463-0.103-5.688-1.354-7.074C115.742,287.722,112.933,287.1,110.664,287.667 M148.583,287.723
		c-3.424,1.14-5.164,4.07-4.622,7.783c0.489,3.356,2.582,5.365,5.988,5.752c2.824,0.318,7.062-1.409,6.416-2.616
		c-0.869-1.623-1.707-1.909-3.306-1.13c-2.069,1.008-3.748,0.598-4.622-1.129c-0.551-1.088-0.686-1.051,3.709-1.051
		c4.711,0,4.448,0.114,4.416-1.901C156.497,289.26,152.516,286.415,148.583,287.723 M161.958,287.672
		c-3.987,0.998-5.838,5.439-4.1,9.838c1.531,3.875,7.25,5.105,11.017,2.369c0.947-0.688,0.969-0.901,0.194-1.877
		c-0.965-1.215-1.17-1.25-2.808-0.483c-2.092,0.979-3.615,0.594-4.491-1.136c-0.55-1.088-0.679-1.051,3.643-1.051h3.913l0.277-0.422
		c0.732-1.119-0.125-4.359-1.538-5.811C166.785,287.786,164.054,287.147,161.958,287.672 M186.685,287.754
		c-2.183,0.608-3.514,1.617-3.184,2.416c0.652,1.574,1.69,1.857,3.573,0.976c1.8-0.842,3.033-0.37,3.214,1.229l0.084,0.748
		l-1.144,0.117c-3.455,0.352-5.916,1.592-6.381,3.211c-1.103,3.848,2.826,6.125,6.996,4.057c0.891-0.442,1.074-0.484,1.192-0.273
		c0.373,0.667,0.639,0.766,2.072,0.766h1.416l-0.057-4.875c-0.065-5.479-0.106-5.69-1.401-7.125
		C191.804,287.606,189.109,287.079,186.685,287.754 M201.973,287.81c-0.428,0.172-1.009,0.478-1.291,0.681l-0.515,0.365
		l-0.159-0.418c-0.237-0.622-0.67-0.771-2.247-0.771h-1.428v6.666V301h2.084h2.083v-4.664v-4.664l0.875-0.5
		c0.968-0.555,1.236-0.6,1.88-0.307c0.856,0.391,0.912,0.731,0.912,5.627V301h2.181h2.182l-0.065-4.959
		c-0.071-5.424-0.118-5.705-1.235-7.168C206.286,287.638,203.695,287.113,201.973,287.81 M251.979,287.75
		c-4.363,1.402-4.424,6.879-0.088,8.002c2.57,0.664,3.449,1.429,2.578,2.242c-0.568,0.527-1.738,0.457-2.949-0.179
		c-1.354-0.709-1.846-0.594-2.615,0.608c-0.885,1.385-0.778,1.566,1.377,2.318c4.535,1.586,8.43-0.22,8.459-3.922
		c0.016-2.093-0.936-3.076-3.959-4.087c-1.777-0.594-2.285-1.03-1.895-1.629c0.375-0.573,1.816-0.616,3.139-0.095
		c1.09,0.43,1.42,0.34,2.1-0.568s0.678-1.154-0.009-1.679C256.634,287.633,253.799,287.165,251.979,287.75 M263.083,287.646
		c-2.292,0.608-3.513,2.257-3.386,4.576c0.111,2.038,0.85,2.788,3.658,3.71c1.83,0.602,2.312,0.913,2.312,1.501
		c0,1.002-1.651,1.194-3.31,0.386c-1.469-0.717-2.215-0.355-3.078,1.492c-0.41,0.878,2.293,1.941,4.888,1.921
		c3.69-0.026,5.623-1.674,5.472-4.665c-0.096-1.908-1.061-2.833-3.98-3.816c-1.879-0.631-2.447-1.229-1.791-1.883
		c0.324-0.326,2.005-0.238,3.039,0.157c1.156,0.442,1.507,0.32,2.271-0.789c0.677-0.985,0.606-1.116-1.054-1.969
		C266.79,287.583,264.423,287.292,263.083,287.646 M281.337,287.767c-4.415,1.187-6.211,6.844-3.479,10.966
		c1.983,2.996,7.857,3.45,10.566,0.816c2.447-2.377,2.6-7.344,0.305-9.885C287.023,287.779,284.094,287.026,281.337,287.767
		 M297.458,287.738c-0.344,0.123-0.888,0.423-1.209,0.669c-0.582,0.443-0.916,0.447-0.916,0.01c0-0.521-0.7-0.75-2.287-0.75H291.5
		v6.666V301h2.167h2.166v-4.655v-4.654l0.44-0.346c1.07-0.843,2.313-0.821,2.967,0.052c0.324,0.434,0.346,0.719,0.395,5.031
		l0.051,4.572h2.074h2.073v-4.637c0-5.025-0.099-5.765-0.942-7.041C301.846,287.743,299.423,287.038,297.458,287.738
		 M169.333,287.907c0,0.133,0.825,2.303,1.834,4.821c1.008,2.519,1.833,4.646,1.833,4.726s0.29,0.894,0.645,1.805l0.645,1.658
		l1.986,0.047l1.986,0.047l2.186-5.547c2.04-5.178,2.885-7.43,2.885-7.688c0-0.178-3.663-0.122-4.005,0.062
		c-0.316,0.168-0.409,0.433-2.196,6.211c-0.391,1.265-0.725,2.24-0.742,2.168c-0.467-1.979-2.514-7.873-2.838-8.174
		C173.044,287.57,169.333,287.452,169.333,287.907 M242.833,294.333V301H245h2.167v-6.668v-6.666H245h-2.167V294.333
		 M271.167,294.333V301h2.083h2.083v-6.668v-6.666h-2.083h-2.083V294.333 M151.981,290.938c0.358,0.251,0.852,1.154,0.852,1.557
		c0,0.11-0.84,0.172-2.333,0.172c-1.283,0-2.333-0.041-2.333-0.09C148.167,291.145,150.713,290.051,151.981,290.938
		 M165.293,291.042c0.334,0.356,0.707,1.133,0.707,1.469c0,0.09-0.966,0.156-2.252,0.156h-2.252l0.26-0.623
		C162.351,290.62,164.363,290.049,165.293,291.042 M285.102,291.379c1.672,1.824,1.051,6.086-0.966,6.629
		c-2.415,0.65-4.021-2.963-2.675-6.021C282.107,290.52,284.021,290.2,285.102,291.379 M114,296.655c0,1.494-2.067,2.385-3.208,1.383
		c-0.967-0.849,0.598-2.182,2.583-2.199l0.625-0.006V296.655 M190.332,296.625c-0.002,1.554-2.98,2.578-3.425,1.178
		c-0.351-1.107,0.76-1.905,2.718-1.953l0.708-0.018L190.332,296.625"/>
	<path id="path2" fill="#73BBE3" d="M224.542,133.083c0.002,0.367,0.036,0.497,0.076,0.29s0.038-0.507-0.003-0.667
		C224.573,132.547,224.54,132.717,224.542,133.083 M210.042,147.119c0.252,0.039,0.664,0.039,0.916,0
		c0.252-0.038,0.046-0.069-0.458-0.069S209.79,147.081,210.042,147.119 M166.048,158.583c0.001,0.459,0.033,0.626,0.072,0.373
		c0.038-0.253,0.037-0.628-0.003-0.833C166.078,157.918,166.046,158.125,166.048,158.583 M175.125,159.621
		c0.298,0.037,0.785,0.037,1.083,0s0.054-0.068-0.541-0.068C175.071,159.553,174.827,159.584,175.125,159.621 M217.208,160.282
		c0.161,0.041,0.423,0.041,0.584,0c0.16-0.042,0.028-0.077-0.292-0.077S217.048,160.24,217.208,160.282 M219.875,160.448
		c0.16,0.042,0.423,0.042,0.583,0c0.161-0.042,0.028-0.076-0.291-0.076C219.846,160.372,219.715,160.406,219.875,160.448
		 M176.051,176.124c0.99,0.03,2.565,0.03,3.5,0c0.934-0.029,0.124-0.054-1.801-0.053
		C175.825,176.071,175.06,176.095,176.051,176.124 M221,177.052c0,0.029,0.244,0.273,0.542,0.542l0.541,0.489l-0.489-0.541
		C221.139,177.037,221,176.923,221,177.052 M167.208,177.957c0.711,0.031,1.873,0.031,2.584,0c0.71-0.031,0.129-0.057-1.292-0.057
		S166.498,177.926,167.208,177.957 M242.205,183.833c0,0.321,0.035,0.452,0.077,0.292c0.041-0.16,0.041-0.423,0-0.583
		C242.24,183.381,242.205,183.512,242.205,183.833 M225.064,187.083c0,1.101,0.026,1.529,0.06,0.953
		c0.032-0.576,0.032-1.477-0.001-2S225.063,185.983,225.064,187.083 M231.068,190.667c0,1.695,0.025,2.39,0.056,1.541
		c0.03-0.848,0.03-2.234,0-3.082C231.094,188.277,231.068,188.971,231.068,190.667 M225.076,200.583
		c0,3.484,0.021,4.933,0.049,3.221c0.027-1.713,0.027-4.563,0-6.334C225.098,195.7,225.076,197.1,225.076,200.583 M238.568,200.5
		c0,1.604,0.025,2.26,0.056,1.457c0.03-0.801,0.03-2.113,0-2.916C238.594,198.241,238.568,198.896,238.568,200.5 M231.077,207.5
		c0,4.629,0.022,6.522,0.048,4.207c0.025-2.313,0.025-6.102,0-8.416S231.077,202.872,231.077,207.5 M238.555,210.25
		c0,0.642,0.031,0.883,0.067,0.537s0.035-0.871-0.002-1.166C238.583,209.325,238.555,209.608,238.555,210.25 M225.072,216.333
		c0,2.246,0.023,3.166,0.053,2.043c0.027-1.123,0.027-2.961,0-4.084C225.096,213.168,225.072,214.088,225.072,216.333
		 M238.499,218.952c-0.045,1.026-0.022,1.807,0.049,1.734c0.072-0.072,0.109-0.913,0.082-1.867l-0.049-1.736L238.499,218.952
		 M231.066,223.75c0,1.375,0.026,1.914,0.058,1.201c0.03-0.716,0.03-1.841,0-2.5C231.092,221.79,231.066,222.375,231.066,223.75
		 M225.061,227.75c0,0.916,0.028,1.27,0.063,0.785s0.033-1.234-0.001-1.666C225.088,226.437,225.061,226.833,225.061,227.75"/>
	<path id="path3" fill="#A5D4ED" d="M175.045,133.167c0,0.412,0.033,0.581,0.073,0.375c0.039-0.207,0.039-0.544,0-0.75
		C175.078,132.585,175.045,132.754,175.045,133.167 M194.667,144.551c0,0.235-0.288,0.279-2.125,0.319l-2.125,0.047L190.403,146
		l-0.014,1.083l0.063-1.041l0.064-1.042h2.081c2.026,0,2.622-0.17,2.174-0.618C194.713,144.325,194.667,144.401,194.667,144.551
		 M206.534,144.955l1.784,0.056l0.061,1.036l0.061,1.036L208.428,146l-0.011-1.083l-1.834-0.01l-1.833-0.009L206.534,144.955
		 M187.487,155.208c0.121,0.161,0.393,0.292,0.603,0.292s0.42,0.094,0.466,0.208c0.051,0.125,0.09,0.091,0.098-0.083
		c0.009-0.211-0.116-0.292-0.454-0.292c-0.257,0-0.572-0.093-0.7-0.208C187.301,154.948,187.299,154.96,187.487,155.208
		 M167.458,157.791c0.757,0.031,1.994,0.031,2.75,0c0.757-0.031,0.138-0.056-1.375-0.056
		C167.321,157.735,166.702,157.76,167.458,157.791 M154.958,159.458c-7.205,0.029-11.132,0.103-11.145,0.21
		c-0.031,0.243-0.071,0.368-0.274,0.856c-0.101,0.242-0.227,0.73-0.28,1.083c-0.063,0.422,0.059,0.199,0.353-0.649l0.448-1.291
		h11.053c7.258,0,11.054-0.058,11.054-0.167c0-0.092-0.019-0.148-0.042-0.126S161.077,159.434,154.958,159.458 M178.05,159.624
		c0.806,0.031,2.081,0.031,2.833,0s0.092-0.056-1.466-0.056C177.858,159.568,177.243,159.594,178.05,159.624 M216.208,160.282
		c0.161,0.041,0.423,0.041,0.584,0c0.16-0.042,0.028-0.077-0.292-0.077S216.048,160.24,216.208,160.282 M218.375,160.453
		c0.252,0.038,0.665,0.038,0.917,0s0.046-0.07-0.459-0.07C218.329,160.383,218.123,160.415,218.375,160.453 M221.125,160.618
		c0.206,0.039,0.544,0.039,0.75,0c0.206-0.04,0.037-0.073-0.375-0.073S220.919,160.578,221.125,160.618 M142.429,164.262
		c-0.062,0.244-0.08,0.477-0.04,0.515c0.039,0.04,0.121-0.128,0.182-0.372c0.062-0.244,0.08-0.476,0.04-0.516
		C142.572,163.85,142.49,164.018,142.429,164.262 M140.709,173.083c0.002,0.367,0.036,0.497,0.076,0.29
		c0.039-0.207,0.038-0.507-0.004-0.667C140.739,172.547,140.707,172.717,140.709,173.083 M140.548,174.917
		c0.001,0.458,0.033,0.626,0.072,0.372c0.038-0.253,0.037-0.628-0.003-0.833C140.578,174.251,140.546,174.458,140.548,174.917
		 M215.208,175.121c0.344,0.036,0.907,0.036,1.25,0c0.344-0.036,0.063-0.065-0.625-0.065
		C215.146,175.056,214.865,175.085,215.208,175.121 M153.283,176.124l12.7,0.045l0.063,0.79l0.063,0.791l-0.013-0.833l-0.013-0.834
		l-12.75-0.001l-12.75-0.002L153.283,176.124 M181.46,176.118c0.208,0.04,0.508,0.038,0.667-0.003
		c0.159-0.042-0.01-0.075-0.377-0.073S181.253,176.078,181.46,176.118 M198.292,179.29c0.573,0.033,1.51,0.033,2.083,0
		c0.573-0.032,0.104-0.059-1.042-0.059C198.188,179.231,197.719,179.258,198.292,179.29 M242.24,189
		c0,2.611,0.023,3.681,0.051,2.375c0.027-1.307,0.027-3.444,0-4.75C242.264,185.319,242.24,186.387,242.24,189 M229.914,185.79
		l2.582,0.053l0.047,5.453l0.047,5.455l-0.003-5.5l-0.004-5.5l-2.625-0.008l-2.625-0.006L229.914,185.79 M234.742,185.875
		c-0.044,0.115-0.059,2.723-0.034,5.793l0.047,5.582l0.039-5.699l0.039-5.699l0.792-0.063l0.792-0.063l-0.797-0.029
		C235.109,185.676,234.794,185.743,234.742,185.875 M239.205,185.784l0.789,0.067l0.049,3.95l0.049,3.949l-0.004-4l-0.005-4
		l-0.833-0.018l-0.833-0.018L239.205,185.784 M228.902,190.667c0,1.787,0.025,2.519,0.056,1.625s0.03-2.356,0-3.25
		S228.902,188.879,228.902,190.667 M226.25,189.833l-0.5,0.129l0.448,0.019c0.247,0.011,0.495-0.056,0.552-0.147
		c0.057-0.09,0.08-0.156,0.052-0.146C226.773,189.698,226.525,189.763,226.25,189.833 M228.911,207.5
		c0,4.721,0.021,6.651,0.047,4.291s0.026-6.223,0-8.584C228.932,200.848,228.911,202.779,228.911,207.5 M240.073,203.5
		c0,2.521,0.022,3.551,0.052,2.291c0.027-1.26,0.027-3.322,0-4.584C240.096,199.948,240.073,200.979,240.073,203.5 M242.238,203.5
		c0,2.338,0.025,3.293,0.053,2.125c0.029-1.17,0.029-3.082,0-4.25C242.264,200.206,242.238,201.163,242.238,203.5 M234.732,204.667
		c0,1.33,0.026,1.873,0.058,1.209c0.032-0.666,0.032-1.752,0-2.418C234.759,202.793,234.732,203.338,234.732,204.667
		 M232.564,204.667c0,1.146,0.026,1.615,0.059,1.041c0.033-0.572,0.033-1.51,0-2.082
		C232.591,203.051,232.564,203.521,232.564,204.667 M234.667,217.895v5.727L234,224.064c-0.367,0.242-0.667,0.481-0.667,0.53
		s0.338-0.145,0.75-0.428l0.75-0.516v-5.742c0-3.158-0.037-5.742-0.083-5.742S234.667,214.745,234.667,217.895 M232.576,218.667
		c0,3.438,0.021,4.844,0.049,3.125s0.027-4.531,0-6.25S232.576,215.229,232.576,218.667 M240.036,216.032
		c-0.042,3.453-0.05,3.441,1.274,2.063l1.022-1.065l-0.031-1.89l-0.03-1.889l-0.095,1.941l-0.094,1.941l-0.916,0.853l-0.917,0.851
		l-0.089-2.877l-0.091-2.877L240.036,216.032 M237.75,221.094c-0.367,0.324-0.518,0.517-0.333,0.428
		c0.483-0.234,1.301-1.035,1.041-1.02C238.436,220.504,238.117,220.77,237.75,221.094 M228.866,224.208
		c-0.019,1.719,0.024,3.125,0.092,3.127c0.069,0,0.106-0.92,0.082-2.043C228.958,221.452,228.898,221.083,228.866,224.208
		 M230.223,226.479c-0.871,0.548-1.136,0.814-0.473,0.473c1.27-0.65,1.434-0.754,1.305-0.83
		C230.979,226.077,230.604,226.239,230.223,226.479 M226.167,228.799c-1.119,0.543-1.074,0.516-0.972,0.619
		c0.088,0.086,1.601-0.664,1.88-0.933C227.307,228.263,227.184,228.305,226.167,228.799"/>
	<path id="path4" fill="#4FACDC" d="M222.991,136.625l-0.574,0.625l0.625-0.574c0.343-0.316,0.625-0.598,0.625-0.625
		C223.667,135.923,223.525,136.043,222.991,136.625 M194.5,144.495c0,0.093-0.899,0.184-2.125,0.214l-2.125,0.052l2.208,0.036
		c1.868,0.031,2.209-0.002,2.209-0.214c0-0.137-0.038-0.25-0.084-0.25S194.5,144.406,194.5,144.495 M205.792,144.79
		c0.481,0.033,1.269,0.033,1.75,0c0.481-0.034,0.087-0.062-0.875-0.062C205.704,144.728,205.311,144.756,205.792,144.79
		 M188.542,146.955c0.343,0.036,0.906,0.036,1.25,0c0.343-0.036,0.062-0.066-0.625-0.066
		C188.479,146.889,188.198,146.919,188.542,146.955 M208.875,147.115c0.16,0.042,0.423,0.042,0.583,0
		c0.161-0.042,0.028-0.076-0.291-0.076C208.846,147.039,208.715,147.073,208.875,147.115 M187.238,151.25
		c0,2.108,0.024,2.948,0.053,1.866c0.029-1.083,0.029-2.808,0-3.834C187.262,148.256,187.238,149.142,187.238,151.25
		 M149.458,159.458c3.048,0.026,8.036,0.026,11.084,0c3.048-0.025,0.554-0.046-5.542-0.046S146.41,159.433,149.458,159.458
		 M179.383,159.457c0.714,0.032,1.839,0.031,2.5,0c0.66-0.032,0.075-0.057-1.3-0.057S178.668,159.426,179.383,159.457
		 M218.208,160.282c0.161,0.041,0.423,0.041,0.584,0c0.16-0.042,0.028-0.077-0.292-0.077S218.048,160.24,218.208,160.282
		 M236.75,167.667c0.451,0.458,0.857,0.833,0.904,0.833c0.046,0-0.286-0.375-0.737-0.833c-0.452-0.459-0.858-0.834-0.903-0.834
		C235.967,166.833,236.299,167.208,236.75,167.667 M181.96,176.285c0.208,0.039,0.508,0.038,0.667-0.004s-0.01-0.074-0.377-0.072
		S181.753,176.245,181.96,176.285 M183.542,176.448c0.16,0.042,0.423,0.042,0.583,0s0.029-0.076-0.292-0.076
		S183.381,176.406,183.542,176.448 M198.795,179.454c0.299,0.037,0.749,0.036,1-0.002c0.25-0.038,0.005-0.068-0.545-0.067
		S198.495,179.417,198.795,179.454 M228.633,185.958c0.762,0.031,1.961,0.031,2.667,0s0.083-0.057-1.383-0.057
		C228.45,185.901,227.872,185.926,228.633,185.958 M234.913,186.034c-0.046,0.12-0.063,2.656-0.038,5.635l0.046,5.414l0.04-5.541
		L235,186h0.58h0.579l0.051,3.125l0.052,3.125l-0.006-3.168l-0.006-3.166l-0.626-0.051
		C235.219,185.831,234.967,185.891,234.913,186.034 M238.574,186.047c-0.045,0.117-0.061,1.562-0.032,3.209l0.05,2.994l0.037-3.125
		l0.038-3.125h0.58h0.58l0.048,3.791l0.048,3.791l0.039-3.875l0.038-3.875h-0.672C238.936,185.833,238.622,185.922,238.574,186.047
		 M228.736,190.667c0,1.787,0.025,2.519,0.055,1.625s0.029-2.356,0-3.25S228.736,188.879,228.736,190.667 M236.236,200.583
		c0,1.742,0.025,2.433,0.055,1.533c0.029-0.898,0.029-2.322,0-3.166C236.262,198.107,236.236,198.842,236.236,200.583
		 M228.744,207.583c0,4.676,0.021,6.612,0.048,4.305c0.026-2.309,0.026-6.135,0-8.5C228.766,201.02,228.744,202.909,228.744,207.583
		 M239.906,203.5c0,2.338,0.023,3.293,0.052,2.125c0.028-1.17,0.028-3.082,0-4.25C239.93,200.206,239.906,201.163,239.906,203.5
		 M234.898,204.667c0,1.237,0.026,1.744,0.059,1.125c0.031-0.619,0.031-1.631,0-2.25
		C234.925,202.922,234.898,203.429,234.898,204.667 M236.225,210.25c0,0.732,0.029,1.013,0.064,0.621
		c0.035-0.393,0.035-0.992-0.001-1.334S236.223,209.517,236.225,210.25 M234.908,217.917c0,3.117,0.023,4.369,0.05,2.781
		c0.028-1.587,0.026-4.137,0-5.666C234.932,213.5,234.908,214.799,234.908,217.917 M239.902,216.25
		c-0.002,1.558,0.023,2.217,0.055,1.467c0.031-0.752,0.031-2.027,0.001-2.834C239.927,214.077,239.902,214.692,239.902,216.25
		 M236.234,219.583c0,1.56,0.025,2.219,0.057,1.467c0.029-0.752,0.029-2.026,0-2.832
		C236.26,217.411,236.234,218.025,236.234,219.583 M228.736,224.333c0,1.696,0.025,2.391,0.055,1.543
		c0.029-0.849,0.029-2.235,0-3.084C228.762,221.944,228.736,222.637,228.736,224.333"/>
</g>
</svg>
